<svg xmlns="http://www.w3.org/2000/svg" xmlns:xlink="http://www.w3.org/1999/xlink" width="500" zoomAndPan="magnify" viewBox="0 0 375 374.999991" height="500" preserveAspectRatio="xMidYMid meet" version="1.0"><defs><clipPath id="0d017fa646"><path d="M 241 116 L 328.109375 116 L 328.109375 240 L 241 240 Z M 241 116 " clip-rule="nonzero"/></clipPath></defs><g clip-path="url(#0d017fa646)"><path fill="#ffbd59" d="M 241.746094 160.96875 C 241.339844 117.734375 277.6875 106.210938 300.3125 125.359375 C 300.3125 125.359375 317.804688 125.632812 328.09375 132.296875 C 289.34375 138.242188 297.632812 196.355469 287.484375 239.632812 C 287.347656 233.875 286.667969 228.160156 285.445312 222.53125 C 284.628906 218.042969 283.359375 213.640625 281.730469 209.375 C 279.460938 203.660156 276.878906 198.574219 273.9375 194.085938 C 266.585938 182.246094 256.027344 171.082031 241.746094 160.96875 Z M 241.746094 160.96875 " fill-opacity="1" fill-rule="evenodd"/></g><path fill="#ff914d" d="M 98.113281 0.277344 C 110.398438 89.152344 187.128906 123.671875 239.707031 159.511719 C 325.824219 218.265625 281.410156 314.535156 218.128906 368.796875 C 198.28125 385.808594 111.800781 312.992188 111.800781 312.992188 C 111.800781 312.992188 238.441406 304.464844 231.820312 245.347656 C 84.203125 233.6875 46.851562 127.300781 98.113281 0.277344 Z M 98.113281 0.277344 " fill-opacity="1" fill-rule="evenodd"/><path fill="#ffbd59" d="M 278.601562 286.679688 C 266.675781 317.4375 243.972656 346.613281 218.136719 368.796875 C 198.289062 385.808594 111.808594 312.992188 111.808594 312.992188 C 111.808594 312.992188 238.449219 304.464844 231.824219 245.347656 C 231.824219 245.347656 262.597656 249.84375 278.601562 286.679688 Z M 278.601562 286.679688 " fill-opacity="1" fill-rule="evenodd"/></svg>